<svg id="Layer_1" data-name="Layer 1" xmlns="http://www.w3.org/2000/svg" viewBox="0 0 112.81 101.58"><defs><style>.cls-1{fill:#748fa0;}</style></defs><title>mini-splat</title><path d="M273.26,175.43a1.5,1.5,0,0,0,0-3,1.5,1.5,0,0,0,0,3Z" transform="translate(-244.22 -130.48)"/><path class="cls-1" d="M277.65,164.6c4.56-.85,6.54.15,7.57-2.88s-.16-6.34-1.65-9.16-3.36-5.56-3.82-8.72a10.4,10.4,0,0,1,20-5.13c2.07,5.55-.21,13.27,4.71,16.57,3.68,2.47,8.76.21,11.9-2.92s5.55-7.17,9.49-9.21a11.64,11.64,0,0,1,14.34,17.74c-3.26,4-9.22,6-10.44,11-1.05,4.29,2.22,8.56,6.06,10.74s8.3,3,12.27,4.93,7.66,5.64,7.42,10c-.28,5-5.62,8.44-10.65,8.85s-9.95-1.25-14.94-1.95-10.71-.13-14,3.68c-3.56,4.12-3,10.39-5.41,15.26a13.31,13.31,0,0,1-25.22-6.28c.15-5.47,3.64-10.8,2.32-16.11-1.16-4.67-5.8-7.74-10.48-8.78s-9.57-.49-14.37-.48-9.89-.64-13.66-3.62-4-8.15-2.56-12.72c3.77-11.76,24.49-10.87,31.09-10.81" transform="translate(-244.22 -130.48)"/><path class="cls-1" d="M278.05,166.05c3.46-.54,7.22,0,8.61-3.93,2-5.76-2.76-10.84-4.61-15.84-4.14-11.18,11.79-18,16.3-7,2,4.81.07,10.77,3.27,15.2,2.48,3.45,6.75,3.91,10.49,2.45,6.33-2.46,8.67-9.57,14.53-12.52,9.67-4.87,18.71,7.13,12.4,15.42-3.08,4-8.86,5.78-10.5,11-4.39,14,17.42,14.52,23.33,21.25,4.08,4.66,1.37,10.15-3.83,12-4.57,1.65-9.35.4-14-.47-5.14-1-10.86-1.79-15.72.74s-6.22,7.21-7.32,12.15c-.93,4.14-2,8.12-5.84,10.59a11.8,11.8,0,0,1-12.21.63c-14-7.94,3.52-24.56-8.52-33.82-6-4.6-13.7-3.78-20.79-3.72-4.76,0-10.19-.22-13.81-3.69-3.45-3.3-3.35-9.14-.74-13.07,5.56-8.36,19.77-7.48,28.52-7.38a1.5,1.5,0,0,0,0-3c-9.12-.11-20.37-.46-27.95,5.49A14.77,14.77,0,0,0,244.24,181c.3,6.37,5,10.13,10.93,11.49,8.41,2,18.19-1.62,26,2.87,10.26,5.93,1.18,16.2,3,24.9,2.5,12.2,18.28,16,26.1,6.36,5.14-6.33,2.36-17.85,11.83-20.4,8.17-2.2,16.28,3,24.51,1.47,5-.91,10.06-4.53,10.46-9.93.44-6-5-10.3-10-12.37-4.14-1.71-9.12-2.53-12.54-5.6-2.5-2.26-4.34-6.28-2.41-9.45,1.19-2,3.29-3.29,5-4.66,4.73-3.72,8-8.14,7-14.5a12.85,12.85,0,0,0-10.73-10.54c-6.51-1.11-11,2.73-15,7.34a25.84,25.84,0,0,1-5,5c-3.59,2.32-8.72,2.17-10.24-2.44-1.16-3.51-.45-7.44-1.44-11a12.35,12.35,0,0,0-12.92-9c-6.15.64-10.84,6.51-10.5,12.61.22,3.81,2.43,6.87,4.07,10.17,1.12,2.25,3.15,7.38.47,9.12-1,.68-4.24.52-5.49.71-1.9.3-1.09,3.19.8,2.9Z" transform="translate(-244.22 -130.48)"/></svg>