<svg id="Layer_1" data-name="Layer 1" xmlns="http://www.w3.org/2000/svg" viewBox="0 0 217.95 180.51"><defs><style>.cls-1{fill:#073c5f;}</style></defs><title>splat</title><path class="cls-1" d="M591.5,379.5c19.1,7.16,4.56,15.28.78,18.41s-8.32,5.35-11.66,8.95-5.19,9.36-2.38,13.39c3.48,5,11.11,4,16.8,1.8s12.31-4.86,17.5-1.67c5,3.05,3.76,8.18,1.9,13.7s-5.68,10.15-8.28,15.36-3.84,11.85-.52,16.64c4.16,6,17.85,9.59,23.86,5.42s8.09-5.81,11.29-12.38c3.71-7.62,4.17-10.35,10.71-13.62,6-3,11-3,16.46,2.74,3.15,3.32,2.42,8.72,3.27,13.22,2.93,15.38,24.71,14.08,39.68,9.47s23.64-23.46,17.41-37.83c-1.6-3.68-4-7.19-4.15-11.2-.17-6.11,5.35-11.17,11.27-12.67s12.15-.33,18.17.71,12.36,1.92,18.12-.13a18.75,18.75,0,0,0,5.77-32.06c-4-3.38-9.26-4.89-14.08-7s-9.69-5.29-11.38-10.28c-1.88-5.58.8-11.69,4.3-16.43s7.93-8.89,10.31-14.28a21.73,21.73,0,0,0-26.31-29.52c-14.81,4.6-22.47,23.94-37.88,25.65-6.33.7-12.61-1.92-17.84-5.53s-9.69-8.24-14.63-12.24c-9.41-7.64-21.41-13.18-33.4-11.45s-23,12.73-21.51,24.75c.46,3.79,2,7.34,2.86,11.06s.71,8-1.78,10.87c-2.95,3.42-8.2,3.73-12.58,2.66s-8.5-3.22-13-3.82c-10.88-1.45-21.86,8.33-21.66,19.31s15.55,16,22.55,18" transform="translate(-567.65 -295.01)"/><path class="cls-1" d="M591.1,381c2.84,1.13,8.76,3.2,8.48,7.15-.16,2.17-2.37,4-3.9,5.31-4.34,3.71-9.37,6.52-13.74,10.17-4.15,3.47-7.8,9.05-6.24,14.72,1.5,5.43,7,7.32,12.11,7,7.27-.5,17.05-8.12,24-3.6,7.9,5.17-2.31,18.87-5.39,24.22s-5.67,12.05-3.42,18.24c1.84,5,6.81,7.89,11.69,9.42,11,3.47,21-1.83,26.43-11.74,3.22-5.89,4.72-11.85,11.17-15,4.6-2.27,9.45-2.49,13.39,1.28,3.66,3.5,3.23,7.78,3.92,12.4,1.73,11.55,12.55,15.18,23,15,11.61-.16,24.46-3,32.1-12.36A30.54,30.54,0,0,0,729,431c-2.29-4.89-4.89-9.43-1.54-14.56,3.12-4.77,8.9-6.39,14.31-6.38,9,0,17.82,3.72,26.86,2.13a20.46,20.46,0,0,0,15.14-28.56c-3.07-6.67-9-9.81-15.53-12.5-4.09-1.68-8.44-3.25-11.66-6.44-4.79-4.74-4.17-10.91-1.13-16.43,3.68-6.7,10.11-11.51,12.94-18.75a23.89,23.89,0,0,0-.87-18.86c-5.68-11.72-20.5-15.89-31.83-10.05S717.74,320.44,705,323.88c-10.59,2.86-20-4.59-27.4-11.13-6.05-5.35-12.1-10.5-19.52-13.89-12.81-5.86-28.33-5.71-38.35,5.27-3.94,4.3-6.53,10-6.27,15.91.33,7.57,9.15,22.44-3.27,24.78-8.13,1.54-15.41-5-23.65-4.17a21.83,21.83,0,0,0-14.75,8.47c-7.43,9.64-4.42,20.43,5.62,26.33A59.7,59.7,0,0,0,591.1,381a1.51,1.51,0,0,0,.8-2.9C581,374.89,565,367.94,572.33,353.8a18.38,18.38,0,0,1,20.36-9.67c6.45,1.47,12.61,5.35,19.43,3.39,15.1-4.34,2.53-22.89,4.85-32.46,1.85-7.61,8.68-13.61,15.93-16,8.58-2.81,18.11-.54,25.91,3.48,13.35,6.87,22.84,22.61,38.5,24.72,12,1.61,20.28-7.07,28.07-14.73,4.64-4.56,9.63-9.29,16.07-11a20.53,20.53,0,0,1,22.41,8.72c4.66,7.52,3.62,16.56-1.31,23.61-4.23,6-10.12,11.08-12,18.48-4,15.25,12.34,18.69,22.33,24.13,8.61,4.69,12.67,15.35,7.61,24.16-5.42,9.43-16,9.58-25.52,8-10.71-1.72-30.09-3.95-32.14,11.46-.83,6.24,3.87,11.23,5.32,17a27.65,27.65,0,0,1-2.68,19.54c-6.46,12.2-20.54,15.89-33.48,15.9-5.6,0-12.12-.86-16.17-5.15-4.71-5-2.27-12-5-17.67-5-10.33-18.69-9-25.57-1.52-3.7,4-4.95,9.78-7.92,14.29-3.36,5.11-9.2,9.49-15.47,9.32-6.9-.19-15.48-3.59-16.49-11.21-1.15-8.62,5.9-15.55,9.28-22.81,1.92-4.14,4.17-9.93,2.4-14.47-1.85-4.71-7.26-6.24-11.87-5.75-7.13.76-15.1,7.08-22.37,4.18-5.13-2.05-5-7.82-2.45-12s7.1-6.34,10.83-9.07c4.27-3.12,13.29-8.27,11.26-14.79-1.35-4.32-6.69-6.36-10.45-7.86-1.8-.71-2.57,2.19-.8,2.9Z" transform="translate(-567.65 -295.01)"/></svg>