<svg id="Layer_1" data-name="Layer 1" xmlns="http://www.w3.org/2000/svg" viewBox="0 0 410.13 609.56"><defs><style>.cls-1{fill:#6d874c;}.cls-2{opacity:0.1;}.cls-3{opacity:0.15;}.cls-4{opacity:0.12;}.cls-5{opacity:0.13;}.cls-6{fill:#e58e6c;}</style></defs><title>plant</title><path class="cls-1" d="M458.14,245.1c-8.92,70.3-46.62,63.75-58.83,103.55l-5.07,17.19a45.63,45.63,0,0,0-.9-18.15c-3.86-15.08-15-26.62-23.82-44-8.26-16.35-14.4-37.88-10.28-72.44,5.93-49.87,25.07-68.57,41.78-82.69,9.93-8.4,19-15.24,23.88-26a43.11,43.11,0,0,0,3.18-11.33C422.29,152.49,467.52,172,458.14,245.1Z" transform="translate(-203.61 -110.97)"/><path class="cls-2" d="M458.14,245.1c-8.92,70.3-46.62,63.75-58.83,103.55l-5.07,17.19a45.63,45.63,0,0,0-.9-18.15L426.52,111l1.56.22C422.29,152.49,467.52,172,458.14,245.1Z" transform="translate(-203.61 -110.97)"/><path class="cls-2" d="M428.82,345.76c39.67,74.7-15.21,101-2.27,149.42l5.87,20.76a42.78,42.78,0,0,0-14.5-16.52L288.5,245.18l2.24-1.14C313.31,288.39,387.7,268,428.82,345.76Z" transform="translate(-203.61 -110.97)"/><path class="cls-1" d="M393.15,536.18a51.46,51.46,0,0,0-10.85-11.73c-1.12-.88-2.16-1.68-3.27-2.39a43,43,0,0,0-4.07-2.4,39.49,39.49,0,0,0-5.74-2.79c-12.21-5.1-26.33-7.1-41.88-13.16a119,119,0,0,1-17.71-8.62c-13.88-8.29-28.64-21.29-44-42.91a202.6,202.6,0,0,1-11.8-18.59C234.4,398.81,236.24,374.4,239,354.06c2-14.12,4.31-26.33.4-38.77a48.65,48.65,0,0,0-5.75-11.57,58.68,58.68,0,0,0,20.27,18.51c8,4.63,16.83,7.9,26.32,11.57,23.53,9,50.74,20.1,76.34,57,35.34,50.9,19.94,75.47,22,104.26a63.92,63.92,0,0,0,6.06,23.38l.56,1.19,4.07,8.46Z" transform="translate(-203.61 -110.97)"/><path class="cls-3" d="M393.15,536.18a51.46,51.46,0,0,0-10.85-11.73c-1.12-.88-2.16-1.68-3.27-2.39l-1.6-2.4-16.59-24.57L282.5,379.19l-28.63-42.36-14.52-21.54-7.18-10.61,1.43-1a58.68,58.68,0,0,0,20.27,18.51c8,4.63,16.83,7.9,26.32,11.57,23.53,9,50.74,20.1,76.34,57,35.34,50.9,19.94,75.47,22,104.26a63.92,63.92,0,0,0,6.06,23.38l.56,1.19,4.07,8.46Z" transform="translate(-203.61 -110.97)"/><path class="cls-1" d="M537.16,460.3c-48.23,61-79.95,33.48-114,64l-14.5,13.28A50,50,0,0,0,418.11,520c4.92-16.35.95-33.54,2.56-54.85,1.51-20.05,7.94-43.76,31.4-73.91,33.84-43.5,62.43-50.23,86.13-54,14.1-2.26,26.48-3.56,37.2-10.92a47.15,47.15,0,0,0,9.41-8.84C556,353,587.42,396.91,537.16,460.3Z" transform="translate(-203.61 -110.97)"/><path class="cls-3" d="M537.16,460.3c-48.23,61-79.95,33.48-114,64l-14.5,13.28A50,50,0,0,0,418.11,520L583.46,316.33l1.35,1.09C556,353,587.42,396.91,537.16,460.3Z" transform="translate(-203.61 -110.97)"/><path class="cls-1" d="M402.43,431.72a52.92,52.92,0,0,0-11.93-16.49c-.85-.75-1.7-1.5-2.63-2.17-12.55-10.21-29-14.33-46.59-24.56-15.47-9-32-22.74-47.26-49.33-2.25-3.83-4.49-8-6.65-12.38-2.3-4.63-4.29-9.1-6.05-13.39-17.59-42.32-11.67-68.37-5.21-89.68,4.18-13.89,8.46-25.87,6.47-39,0-.08-.07-.24-.07-.32a46.41,46.41,0,0,0-3.85-12.27c19.82,42.24,74.13,32.92,109.93,107.28,7.19,15,11.2,27.48,13.11,38.41a92.58,92.58,0,0,1,.37,30.9c.07.09,0,.16,0,.24-2.41,15.56-7.67,28.22-8.07,43.13a68,68,0,0,0,2.68,20.37Z" transform="translate(-203.61 -110.97)"/><path class="cls-2" d="M389.42,281.36c34.34,71.49-5.07,88.25,7.64,133.08l5.69,19.24a51,51,0,0,0-11.88-16.51L278.17,174.51l1.6-.74C299.43,216.11,353.8,206.94,389.42,281.36Z" transform="translate(-203.61 -110.97)"/><path class="cls-1" d="M518.72,331.66c-27.58,74.37-67,57.66-90.43,97.94l-9.88,17.46A51.31,51.31,0,0,0,422,427c-.38-17.41-9.64-32.83-14.79-54-4.85-19.92-6.07-44.95,7.19-81.58,19.13-52.86,44.74-68.39,66.54-79.53,13-6.64,24.57-11.8,32.64-22.31A48,48,0,0,0,520,178.06C503.16,221.61,547.52,254.35,518.72,331.66Z" transform="translate(-203.61 -110.97)"/><path class="cls-4" d="M518.72,331.66c-27.58,74.37-67,57.66-90.43,97.94l-9.88,17.46A51.31,51.31,0,0,0,422,427l96.28-249.62,1.65.64C503.16,221.61,547.52,254.35,518.72,331.66Z" transform="translate(-203.61 -110.97)"/><path class="cls-1" d="M466.71,400.55c10.07,76.36-31.36,79.91-33.18,125.12L433,545.14a49.46,49.46,0,0,0-6-18.82c-8.23-14.78-23.18-23.82-37.22-39.67-13.2-14.9-25.61-35.83-30.85-73.3-7.57-54.05,7.37-79,21-98.47,8.11-11.58,15.74-21.28,17.9-34a46.71,46.71,0,0,0,.2-12.79C403.4,313.13,456.34,321.11,466.71,400.55Z" transform="translate(-203.61 -110.97)"/><path class="cls-5" d="M466.71,400.55c10.07,76.36-31.36,79.91-33.18,125.12L433,545.14a49.46,49.46,0,0,0-6-18.82l-30.64-258,1.7-.21C403.4,313.13,456.34,321.11,466.71,400.55Z" transform="translate(-203.61 -110.97)"/><path class="cls-6" d="M613.74,474.73v26.82a11.13,11.13,0,0,1-11.18,11.17H214.79a11.14,11.14,0,0,1-11.18-11.17V474.73a11.19,11.19,0,0,1,11.18-11.18H602.56A11.19,11.19,0,0,1,613.74,474.73Z" transform="translate(-203.61 -110.97)"/><path class="cls-6" d="M600.18,511.28l-.5,1.44-8.29,24.16L533.27,705.24c-3.1,9-13.48,15.29-25.45,15.29H309.46c-11.9,0-22.35-6.27-25.45-15.29L226,536.88l-8.29-24.16-.5-1.44Z" transform="translate(-203.61 -110.97)"/><polygon class="cls-2" points="396.07 401.75 387.78 425.9 22.35 425.9 14.06 401.75 396.07 401.75"/><path class="cls-2" d="M613.74,474.73v26.82a11.13,11.13,0,0,1-11.18,11.17h-2.88l-8.29,24.16L533.27,705.24c-3.1,9-13.48,15.29-25.45,15.29H408.68v-257H602.56A11.19,11.19,0,0,1,613.74,474.73Z" transform="translate(-203.61 -110.97)"/></svg>